<svg xmlns="http://www.w3.org/2000/svg" width="28" height="28" fill="none">
  <path fill="#fff" d="M14 8.75a5.25 5.25 0 1 0 0 10.5 5.25 5.25 0 0 0 0-10.5Zm0 8.75a3.5 3.5 0 1 1 3.5-3.5 3.511 3.511 0 0 1-3.5 3.5Zm4.813-14.438H9.188a6.125 6.125 0 0 0-6.126 6.126v9.624a6.125 6.125 0 0 0 6.126 6.125h9.624a6.125 6.125 0 0 0 6.125-6.125V9.188a6.125 6.125 0 0 0-6.125-6.124Zm4.375 15.75a4.376 4.376 0 0 1-4.375 4.375H9.188a4.376 4.376 0 0 1-4.376-4.375V9.188a4.375 4.375 0 0 1 4.375-4.374h9.626a4.375 4.375 0 0 1 4.375 4.375v9.624ZM21 8.313a1.313 1.313 0 1 1-2.625 0 1.313 1.313 0 0 1 2.625 0Z"/>
</svg>
