<svg xmlns="http://www.w3.org/2000/svg" width="28" height="28" fill="none">
  <path fill="#fff" d="m17.981 13.267-5.25-3.5a.908.908 0 0 0-.897-.044.875.875 0 0 0-.459.777v7a.874.874 0 0 0 .46.776.93.93 0 0 0 .415.099.919.919 0 0 0 .481-.142l5.25-3.5a.875.875 0 0 0 0-1.466Zm-4.856 2.603v-3.74l2.8 1.87-2.8 1.87Zm12.502-8.236a2.571 2.571 0 0 0-1.586-1.782C20.3 4.408 14.328 4.419 14 4.419c-.328 0-6.3-.011-10.04 1.433a2.57 2.57 0 0 0-1.587 1.782C2.09 8.717 1.75 10.708 1.75 14s.34 5.283.623 6.366a2.57 2.57 0 0 0 1.586 1.782c3.588 1.39 9.21 1.433 9.964 1.433h.154c.754 0 6.376-.044 9.964-1.433a2.57 2.57 0 0 0 1.586-1.782c.284-1.083.623-3.074.623-6.366s-.34-5.283-.623-6.366ZM23.93 19.928a.853.853 0 0 1-.514.59c-3.467 1.335-9.351 1.313-9.417 1.313h-.01c-.056 0-5.94.022-9.407-1.312a.853.853 0 0 1-.514-.59c-.263-.996-.569-2.823-.569-5.93 0-3.105.306-4.932.569-5.927a.853.853 0 0 1 .514-.59c3.336-1.28 8.936-1.313 9.395-1.313H14c.066 0 5.95-.022 9.417 1.312a.854.854 0 0 1 .514.59c.263.996.569 2.823.569 5.929 0 3.106-.306 4.933-.569 5.928Z"/>
</svg>
